<?xml version="1.0" encoding="utf-8"?>
<!-- Generator: Adobe Illustrator 28.0.0, SVG Export Plug-In . SVG Version: 6.00 Build 0)  -->
<svg version="1.1" xmlns="http://www.w3.org/2000/svg" xmlns:xlink="http://www.w3.org/1999/xlink" x="0px" y="0px"
	 viewBox="0 0 2142 1080" style="enable-background:new 0 0 2142 1080;" xml:space="preserve">
<style type="text/css">
	.st0{fill:#E7E7CF;}
	.st1{display:none;}
	.st2{display:inline;}
	.st3{fill:#808080;}
</style>
<g id="Layer_1">
	<g>
		<path class="st0" d="M723.33,515.38v49.23c0,1.94-1.57,3.52-3.52,3.52H570.39c-1.59,0-2.98,1.07-3.4,2.61l-78,291.09
			c-0.5,1.88-2.43,2.99-4.31,2.49l-47.55-12.75c-1.88-0.5-2.99-2.43-2.49-4.31l57.11-213.13L335.73,790.16
			c-1.37,1.37-3.6,1.37-4.97,0l-34.81-34.81c-1.37-1.37-1.37-3.6,0-4.97l156.02-156.02l-213.13,57.11c-1.88,0.5-3.8-0.61-4.31-2.49
			l-12.75-47.55c-0.5-1.88,0.61-3.8,2.49-4.31L437.39,540l-213.12-57.11c-1.88-0.5-2.99-2.43-2.49-4.31l12.75-47.55
			c0.5-1.88,2.43-2.99,4.31-2.49l213.13,57.11L295.94,329.63c-1.37-1.37-1.37-3.6,0-4.97l34.81-34.81c1.37-1.37,3.6-1.37,4.97,0
			l156.02,156.02l-57.11-213.13c-0.5-1.88,0.61-3.8,2.49-4.31l47.55-12.75c1.88-0.5,3.8,0.61,4.31,2.49l78,291.09
			c0.41,1.54,1.81,2.61,3.4,2.61h149.43C721.76,511.87,723.33,513.44,723.33,515.38z"/>
	</g>
</g>
<g id="Layer_3" class="st1">
	<g class="st2">
		<g>
			<path class="st3" d="M470.08,216.11c-16.6,0-30.7-3-42.3-9c-11.6-6-22-14.8-31.2-26.4l23.4-23.4c5.8,8.4,12.7,14.95,20.7,19.65
				c8,4.7,18.2,7.05,30.6,7.05c11.6,0,20.85-2.4,27.75-7.2c6.9-4.8,10.35-11.4,10.35-19.8c0-7-1.8-12.7-5.4-17.1
				c-3.6-4.4-8.35-8.05-14.25-10.95c-5.9-2.9-12.4-5.5-19.5-7.8c-7.1-2.3-14.2-4.9-21.3-7.8c-7.1-2.9-13.6-6.55-19.5-10.95
				c-5.9-4.4-10.65-10.1-14.25-17.1c-3.6-7-5.4-15.9-5.4-26.7c0-12.4,3.05-22.95,9.15-31.65c6.1-8.7,14.35-15.35,24.75-19.95
				c10.4-4.6,22-6.9,34.8-6.9c13.8,0,26.15,2.7,37.05,8.1c10.9,5.4,19.75,12.3,26.55,20.7l-23.4,23.4
				c-6-6.8-12.25-11.85-18.75-15.15c-6.5-3.3-13.95-4.95-22.35-4.95c-10.4,0-18.55,2.1-24.45,6.3c-5.9,4.2-8.85,10.1-8.85,17.7
				c0,6.4,1.8,11.55,5.4,15.45c3.6,3.9,8.35,7.2,14.25,9.9c5.9,2.7,12.4,5.25,19.5,7.65c7.1,2.4,14.2,5.1,21.3,8.1
				c7.1,3,13.6,6.85,19.5,11.55c5.9,4.7,10.65,10.75,14.25,18.15c3.6,7.4,5.4,16.7,5.4,27.9c0,18.8-6.65,33.7-19.95,44.7
				C510.62,210.61,492.68,216.11,470.08,216.11z"/>
		</g>
	</g>
	<g class="st2">
		<g>
			<path class="st3" d="M525.65,880.55c13.3,11,19.95,25.9,19.95,44.7c0,11.2-1.8,20.5-5.4,27.9c-3.6,7.4-8.35,13.45-14.25,18.15
				c-5.9,4.7-12.4,8.55-19.5,11.55c-7.1,3-14.2,5.7-21.3,8.1c-7.1,2.4-13.6,4.95-19.5,7.65c-5.9,2.7-10.65,6-14.25,9.9
				c-3.6,3.9-5.4,9.05-5.4,15.45c0,7.6,2.95,13.5,8.85,17.7c5.9,4.2,14.05,6.3,24.45,6.3c8.4,0,15.85-1.65,22.35-4.95
				c6.5-3.3,12.75-8.35,18.75-15.15l23.4,23.4c-6.8,8.4-15.65,15.3-26.55,20.7c-10.9,5.4-23.25,8.1-37.05,8.1
				c-12.8,0-24.4-2.3-34.8-6.9c-10.4-4.6-18.65-11.25-24.75-19.95c-6.1-8.7-9.15-19.25-9.15-31.65c0-10.8,1.8-19.7,5.4-26.7
				c3.6-7,8.35-12.7,14.25-17.1c5.9-4.4,12.4-8.05,19.5-10.95c7.1-2.9,14.2-5.5,21.3-7.8c7.1-2.3,13.6-4.9,19.5-7.8
				c5.9-2.9,10.65-6.55,14.25-10.95c3.6-4.4,5.4-10.1,5.4-17.1c0-8.4-3.45-15-10.35-19.8c-6.9-4.8-16.15-7.2-27.75-7.2
				c-12.4,0-22.6,2.35-30.6,7.05c-8,4.7-14.9,11.25-20.7,19.65l-23.4-23.4c9.2-11.6,19.6-20.4,31.2-26.4c11.6-6,25.7-9,42.3-9
				C494.4,864.05,512.35,869.55,525.65,880.55z"/>
		</g>
	</g>
	<g class="st2">
		<g>
			<path class="st3" d="M2142.11,545.7c0,16.6-3,30.7-9,42.3c-6,11.6-14.8,22-26.4,31.2l-23.4-23.4c8.4-5.8,14.95-12.7,19.65-20.7
				c4.7-8,7.05-18.2,7.05-30.6c0-11.6-2.4-20.85-7.2-27.75c-4.8-6.9-11.4-10.35-19.8-10.35c-7,0-12.7,1.8-17.1,5.4
				c-4.4,3.6-8.05,8.35-10.95,14.25c-2.9,5.9-5.5,12.4-7.8,19.5c-2.3,7.1-4.9,14.2-7.8,21.3c-2.9,7.1-6.55,13.6-10.95,19.5
				c-4.4,5.9-10.1,10.65-17.1,14.25c-7,3.6-15.9,5.4-26.7,5.4c-12.4,0-22.95-3.05-31.65-9.15c-8.7-6.1-15.35-14.35-19.95-24.75
				c-4.6-10.4-6.9-22-6.9-34.8c0-13.8,2.7-26.15,8.1-37.05c5.4-10.9,12.3-19.75,20.7-26.55l23.4,23.4
				c-6.8,6-11.85,12.25-15.15,18.75c-3.3,6.5-4.95,13.95-4.95,22.35c0,10.4,2.1,18.55,6.3,24.45c4.2,5.9,10.1,8.85,17.7,8.85
				c6.4,0,11.55-1.8,15.45-5.4c3.9-3.6,7.2-8.35,9.9-14.25c2.7-5.9,5.25-12.4,7.65-19.5c2.4-7.1,5.1-14.2,8.1-21.3
				c3-7.1,6.85-13.6,11.55-19.5c4.7-5.9,10.75-10.65,18.15-14.25c7.4-3.6,16.7-5.4,27.9-5.4c18.8,0,33.7,6.65,44.7,19.95
				C2136.61,505.15,2142.11,523.1,2142.11,545.7z"/>
		</g>
	</g>
	<g class="st2">
		<g>
			<path class="st3" d="M16.5,494.85c11-13.3,25.9-19.95,44.7-19.95c11.2,0,20.5,1.8,27.9,5.4c7.4,3.6,13.45,8.35,18.15,14.25
				c4.7,5.9,8.55,12.4,11.55,19.5c3,7.1,5.7,14.2,8.1,21.3c2.4,7.1,4.95,13.6,7.65,19.5c2.7,5.9,6,10.65,9.9,14.25
				c3.9,3.6,9.05,5.4,15.45,5.4c7.6,0,13.5-2.95,17.7-8.85c4.2-5.9,6.3-14.05,6.3-24.45c0-8.4-1.65-15.85-4.95-22.35
				c-3.3-6.5-8.35-12.75-15.15-18.75l23.4-23.4c8.4,6.8,15.3,15.65,20.7,26.55c5.4,10.9,8.1,23.25,8.1,37.05
				c0,12.8-2.3,24.4-6.9,34.8c-4.6,10.4-11.25,18.65-19.95,24.75c-8.7,6.1-19.25,9.15-31.65,9.15c-10.8,0-19.7-1.8-26.7-5.4
				c-7-3.6-12.7-8.35-17.1-14.25c-4.4-5.9-8.05-12.4-10.95-19.5c-2.9-7.1-5.5-14.2-7.8-21.3c-2.3-7.1-4.9-13.6-7.8-19.5
				c-2.9-5.9-6.55-10.65-10.95-14.25c-4.4-3.6-10.1-5.4-17.1-5.4c-8.4,0-15,3.45-19.8,10.35c-4.8,6.9-7.2,16.15-7.2,27.75
				c0,12.4,2.35,22.6,7.05,30.6c4.7,8,11.25,14.9,19.65,20.7l-23.4,23.4C23.8,613,15,602.6,9,591c-6-11.6-9-25.7-9-42.3
				C0,526.1,5.5,508.15,16.5,494.85z"/>
		</g>
	</g>
</g>
<g id="Layer_2">
	<g>
		<path class="st0" d="M879.91,622.2c-16.6,0-30.7-3-42.3-9c-11.6-6-22-14.8-31.2-26.4l23.4-23.4c5.8,8.4,12.7,14.95,20.7,19.65
			c8,4.7,18.2,7.05,30.6,7.05c11.6,0,20.85-2.4,27.75-7.2s10.35-11.4,10.35-19.8c0-7-1.8-12.7-5.4-17.1
			c-3.6-4.4-8.35-8.05-14.25-10.95c-5.9-2.9-12.4-5.5-19.5-7.8c-7.1-2.3-14.2-4.9-21.3-7.8c-7.1-2.9-13.6-6.55-19.5-10.95
			c-5.9-4.4-10.65-10.1-14.25-17.1c-3.6-7-5.4-15.9-5.4-26.7c0-12.4,3.05-22.95,9.15-31.65c6.1-8.7,14.35-15.35,24.75-19.95
			c10.4-4.6,22-6.9,34.8-6.9c13.8,0,26.15,2.7,37.05,8.1c10.9,5.4,19.75,12.3,26.55,20.7l-23.4,23.4c-6-6.8-12.25-11.85-18.75-15.15
			c-6.5-3.3-13.95-4.95-22.35-4.95c-10.4,0-18.55,2.1-24.45,6.3c-5.9,4.2-8.85,10.1-8.85,17.7c0,6.4,1.8,11.55,5.4,15.45
			c3.6,3.9,8.35,7.2,14.25,9.9c5.9,2.7,12.4,5.25,19.5,7.65c7.1,2.4,14.2,5.1,21.3,8.1c7.1,3,13.6,6.85,19.5,11.55
			c5.9,4.7,10.65,10.75,14.25,18.15c3.6,7.4,5.4,16.7,5.4,27.9c0,18.8-6.65,33.7-19.95,44.7C920.45,616.71,902.5,622.2,879.91,622.2
			z"/>
		<path class="st0" d="M1048.81,622.2c-14.4,0-27.35-3.25-38.85-9.75c-11.5-6.5-20.6-15.45-27.3-26.85
			c-6.7-11.4-10.05-24.2-10.05-38.4c0-14.2,3.3-26.95,9.9-38.25c6.6-11.3,15.55-20.25,26.85-26.85c11.3-6.6,23.85-9.9,37.65-9.9
			c13.4,0,25.25,3.1,35.55,9.3c10.3,6.2,18.4,14.7,24.3,25.5c5.9,10.8,8.85,23.1,8.85,36.9c0,2.4-0.15,4.85-0.45,7.35
			c-0.3,2.5-0.75,5.25-1.35,8.25h-118.2v-27h101.1l-12.3,10.8c-0.4-8.8-2.1-16.2-5.1-22.2s-7.25-10.6-12.75-13.8
			c-5.5-3.2-12.25-4.8-20.25-4.8c-8.4,0-15.7,1.8-21.9,5.4c-6.2,3.6-11,8.65-14.4,15.15c-3.4,6.5-5.1,14.25-5.1,23.25
			s1.8,16.9,5.4,23.7c3.6,6.8,8.7,12.05,15.3,15.75c6.6,3.7,14.2,5.55,22.8,5.55c7.4,0,14.25-1.3,20.55-3.9
			c6.3-2.6,11.65-6.4,16.05-11.4l21,21.3c-7,8.2-15.5,14.4-25.5,18.6C1070.6,620.1,1060,622.2,1048.81,622.2z"/>
		<path class="st0" d="M1129.51,505.2v-30h102v30H1129.51z M1164.01,619.2v-204h33v204H1164.01z"/>
		<path class="st0" d="M1242.9,505.2v-30h102v30H1242.9z M1277.4,619.2v-204h33v204H1277.4z"/>
		<path class="st0" d="M1391.92,454.8c-5.6,0-10.25-1.9-13.95-5.7c-3.7-3.8-5.55-8.5-5.55-14.1c0-5.6,1.85-10.3,5.55-14.1
			c3.7-3.8,8.35-5.7,13.95-5.7c5.8,0,10.5,1.9,14.1,5.7c3.6,3.8,5.4,8.5,5.4,14.1c0,5.6-1.8,10.3-5.4,14.1
			C1402.42,452.91,1397.72,454.8,1391.92,454.8z M1375.42,619.2v-144h33v144H1375.42z"/>
		<path class="st0" d="M1439.1,619.2v-144h33v144H1439.1z M1534.8,619.2v-85.8c0-9.6-3-17.05-9-22.35c-6-5.3-13.4-7.95-22.2-7.95
			c-6,0-11.35,1.2-16.05,3.6c-4.7,2.4-8.45,5.85-11.25,10.35c-2.8,4.5-4.2,9.95-4.2,16.35l-12.9-7.2c0-11,2.4-20.5,7.2-28.5
			c4.8-8,11.3-14.25,19.5-18.75c8.2-4.5,17.4-6.75,27.6-6.75s19.4,2.2,27.6,6.6c8.2,4.4,14.7,10.6,19.5,18.6
			c4.8,8,7.2,17.6,7.2,28.8v93H1534.8z M1630.5,619.2v-85.8c0-9.6-3-17.05-9-22.35c-6-5.3-13.4-7.95-22.2-7.95
			c-5.8,0-11.1,1.2-15.9,3.6c-4.8,2.4-8.6,5.85-11.4,10.35c-2.8,4.5-4.2,9.95-4.2,16.35l-18.6-7.2c1-11,4.2-20.5,9.6-28.5
			c5.4-8,12.35-14.25,20.85-18.75c8.5-4.5,17.85-6.75,28.05-6.75c10.4,0,19.8,2.2,28.2,6.6c8.4,4.4,15.1,10.6,20.1,18.6
			c5,8,7.5,17.6,7.5,28.8v93H1630.5z"/>
		<path class="st0" d="M1757.7,622.2c-13,0-24.75-3.3-35.25-9.9c-10.5-6.6-18.8-15.55-24.9-26.85c-6.1-11.3-9.15-23.95-9.15-37.95
			c0-14.2,3.05-26.95,9.15-38.25c6.1-11.3,14.4-20.3,24.9-27c10.5-6.7,22.25-10.05,35.25-10.05c11,0,20.75,2.35,29.25,7.05
			c8.5,4.7,15.25,11.15,20.25,19.35c5,8.2,7.5,17.5,7.5,27.9v41.4c0,10.4-2.45,19.7-7.35,27.9c-4.9,8.2-11.65,14.65-20.25,19.35
			C1778.49,619.85,1768.69,622.2,1757.7,622.2z M1763.1,591c12.2,0,22.05-4.1,29.55-12.3c7.5-8.2,11.25-18.7,11.25-31.5
			c0-8.6-1.7-16.2-5.1-22.8c-3.4-6.6-8.15-11.75-14.25-15.45c-6.1-3.7-13.25-5.55-21.45-5.55c-8,0-15.05,1.85-21.15,5.55
			c-6.1,3.7-10.9,8.85-14.4,15.45c-3.5,6.6-5.25,14.2-5.25,22.8c0,8.6,1.75,16.2,5.25,22.8c3.5,6.6,8.3,11.75,14.4,15.45
			C1748.04,589.16,1755.09,591,1763.1,591z M1801.8,619.2v-38.7l5.7-35.1l-5.7-34.8v-35.4h33v144H1801.8z"/>
		<path class="st0" d="M1896.59,622.2c-6.4,0-11.65-2.15-15.75-6.45c-4.1-4.3-6.15-9.55-6.15-15.75c0-6.4,2.05-11.7,6.15-15.9
			c4.1-4.2,9.35-6.3,15.75-6.3c6.4,0,11.65,2.1,15.75,6.3c4.1,4.2,6.15,9.5,6.15,15.9c0,6.2-2.05,11.45-6.15,15.75
			C1908.24,620.05,1902.99,622.2,1896.59,622.2z"/>
	</g>
</g>
</svg>
