<?xml version="1.0" encoding="UTF-8"?>
<svg id="Layer_1" data-name="Layer 1" xmlns="http://www.w3.org/2000/svg" viewBox="0 0 713.29 922.57">
  <defs>
    <style>
      .cls-1 {
        fill: #e7e7cf;
        stroke-width: 0px;
      }
    </style>
  </defs>
  <path class="cls-1" d="m713.29,426.29v70c0,2.76-2.24,5-5,5h-212.46c-2.26,0-4.24,1.52-4.83,3.71l-110.9,413.87c-.71,2.67-3.46,4.25-6.12,3.54l-67.61-18.12c-2.67-.71-4.25-3.46-3.54-6.12l81.2-303.03-221.83,221.83c-1.95,1.95-5.12,1.95-7.07,0l-49.5-49.5c-1.95-1.95-1.95-5.12,0-7.07l221.83-221.83L24.42,619.75c-2.67.71-5.41-.87-6.12-3.54L.17,548.61c-.71-2.67.87-5.41,3.54-6.12l303.02-81.2L3.71,380.09c-2.67-.71-4.25-3.46-3.54-6.12l18.12-67.61c.71-2.67,3.46-4.25,6.12-3.54l303.03,81.2L105.61,162.18c-1.95-1.95-1.95-5.12,0-7.07l49.5-49.5c1.95-1.95,5.12-1.95,7.07,0l221.83,221.83L302.82,24.42c-.71-2.67.87-5.41,3.54-6.12L373.97.17c2.67-.71,5.41.87,6.12,3.54l110.9,413.87c.59,2.19,2.57,3.71,4.83,3.71h212.46c2.76,0,5,2.24,5,5Z"/>
</svg>