<?xml version="1.0" encoding="utf-8"?>
<!-- Generator: Adobe Illustrator 28.0.0, SVG Export Plug-In . SVG Version: 6.00 Build 0)  -->
<svg version="1.1" xmlns="http://www.w3.org/2000/svg" xmlns:xlink="http://www.w3.org/1999/xlink" x="0px" y="0px"
	 viewBox="0 0 2142 1080" style="enable-background:new 0 0 2142 1080;" xml:space="preserve">
<style type="text/css">
	.st0{display:none;}
	.st1{display:inline;}
	.st2{fill:#808080;}
	.st3{fill:#E7E7CF;}
</style>
<g id="Layer_1">
</g>
<g id="Layer_3" class="st0">
	<g class="st1">
		<g>
			<path class="st2" d="M470.08,216.11c-16.6,0-30.7-3-42.3-9c-11.6-6-22-14.8-31.2-26.4l23.4-23.4c5.8,8.4,12.7,14.95,20.7,19.65
				c8,4.7,18.2,7.05,30.6,7.05c11.6,0,20.85-2.4,27.75-7.2c6.9-4.8,10.35-11.4,10.35-19.8c0-7-1.8-12.7-5.4-17.1
				c-3.6-4.4-8.35-8.05-14.25-10.95c-5.9-2.9-12.4-5.5-19.5-7.8c-7.1-2.3-14.2-4.9-21.3-7.8c-7.1-2.9-13.6-6.55-19.5-10.95
				c-5.9-4.4-10.65-10.1-14.25-17.1c-3.6-7-5.4-15.9-5.4-26.7c0-12.4,3.05-22.95,9.15-31.65c6.1-8.7,14.35-15.35,24.75-19.95
				c10.4-4.6,22-6.9,34.8-6.9c13.8,0,26.15,2.7,37.05,8.1c10.9,5.4,19.75,12.3,26.55,20.7l-23.4,23.4
				c-6-6.8-12.25-11.85-18.75-15.15c-6.5-3.3-13.95-4.95-22.35-4.95c-10.4,0-18.55,2.1-24.45,6.3c-5.9,4.2-8.85,10.1-8.85,17.7
				c0,6.4,1.8,11.55,5.4,15.45c3.6,3.9,8.35,7.2,14.25,9.9c5.9,2.7,12.4,5.25,19.5,7.65c7.1,2.4,14.2,5.1,21.3,8.1
				c7.1,3,13.6,6.85,19.5,11.55c5.9,4.7,10.65,10.75,14.25,18.15c3.6,7.4,5.4,16.7,5.4,27.9c0,18.8-6.65,33.7-19.95,44.7
				C510.62,210.61,492.68,216.11,470.08,216.11z"/>
		</g>
	</g>
	<g class="st1">
		<g>
			<path class="st2" d="M525.65,880.55c13.3,11,19.95,25.9,19.95,44.7c0,11.2-1.8,20.5-5.4,27.9c-3.6,7.4-8.35,13.45-14.25,18.15
				c-5.9,4.7-12.4,8.55-19.5,11.55c-7.1,3-14.2,5.7-21.3,8.1c-7.1,2.4-13.6,4.95-19.5,7.65c-5.9,2.7-10.65,6-14.25,9.9
				c-3.6,3.9-5.4,9.05-5.4,15.45c0,7.6,2.95,13.5,8.85,17.7c5.9,4.2,14.05,6.3,24.45,6.3c8.4,0,15.85-1.65,22.35-4.95
				c6.5-3.3,12.75-8.35,18.75-15.15l23.4,23.4c-6.8,8.4-15.65,15.3-26.55,20.7c-10.9,5.4-23.25,8.1-37.05,8.1
				c-12.8,0-24.4-2.3-34.8-6.9c-10.4-4.6-18.65-11.25-24.75-19.95c-6.1-8.7-9.15-19.25-9.15-31.65c0-10.8,1.8-19.7,5.4-26.7
				c3.6-7,8.35-12.7,14.25-17.1c5.9-4.4,12.4-8.05,19.5-10.95c7.1-2.9,14.2-5.5,21.3-7.8c7.1-2.3,13.6-4.9,19.5-7.8
				c5.9-2.9,10.65-6.55,14.25-10.95c3.6-4.4,5.4-10.1,5.4-17.1c0-8.4-3.45-15-10.35-19.8c-6.9-4.8-16.15-7.2-27.75-7.2
				c-12.4,0-22.6,2.35-30.6,7.05c-8,4.7-14.9,11.25-20.7,19.65l-23.4-23.4c9.2-11.6,19.6-20.4,31.2-26.4c11.6-6,25.7-9,42.3-9
				C494.4,864.05,512.35,869.55,525.65,880.55z"/>
		</g>
	</g>
	<g class="st1">
		<g>
			<path class="st2" d="M2142.11,545.7c0,16.6-3,30.7-9,42.3c-6,11.6-14.8,22-26.4,31.2l-23.4-23.4c8.4-5.8,14.95-12.7,19.65-20.7
				c4.7-8,7.05-18.2,7.05-30.6c0-11.6-2.4-20.85-7.2-27.75c-4.8-6.9-11.4-10.35-19.8-10.35c-7,0-12.7,1.8-17.1,5.4
				c-4.4,3.6-8.05,8.35-10.95,14.25c-2.9,5.9-5.5,12.4-7.8,19.5c-2.3,7.1-4.9,14.2-7.8,21.3c-2.9,7.1-6.55,13.6-10.95,19.5
				c-4.4,5.9-10.1,10.65-17.1,14.25c-7,3.6-15.9,5.4-26.7,5.4c-12.4,0-22.95-3.05-31.65-9.15c-8.7-6.1-15.35-14.35-19.95-24.75
				c-4.6-10.4-6.9-22-6.9-34.8c0-13.8,2.7-26.15,8.1-37.05c5.4-10.9,12.3-19.75,20.7-26.55l23.4,23.4
				c-6.8,6-11.85,12.25-15.15,18.75c-3.3,6.5-4.95,13.95-4.95,22.35c0,10.4,2.1,18.55,6.3,24.45c4.2,5.9,10.1,8.85,17.7,8.85
				c6.4,0,11.55-1.8,15.45-5.4c3.9-3.6,7.2-8.35,9.9-14.25c2.7-5.9,5.25-12.4,7.65-19.5c2.4-7.1,5.1-14.2,8.1-21.3
				c3-7.1,6.85-13.6,11.55-19.5c4.7-5.9,10.75-10.65,18.15-14.25c7.4-3.6,16.7-5.4,27.9-5.4c18.8,0,33.7,6.65,44.7,19.95
				C2136.61,505.15,2142.11,523.1,2142.11,545.7z"/>
		</g>
	</g>
	<g class="st1">
		<g>
			<path class="st2" d="M16.5,494.85c11-13.3,25.9-19.95,44.7-19.95c11.2,0,20.5,1.8,27.9,5.4c7.4,3.6,13.45,8.35,18.15,14.25
				c4.7,5.9,8.55,12.4,11.55,19.5c3,7.1,5.7,14.2,8.1,21.3c2.4,7.1,4.95,13.6,7.65,19.5c2.7,5.9,6,10.65,9.9,14.25
				c3.9,3.6,9.05,5.4,15.45,5.4c7.6,0,13.5-2.95,17.7-8.85c4.2-5.9,6.3-14.05,6.3-24.45c0-8.4-1.65-15.85-4.95-22.35
				c-3.3-6.5-8.35-12.75-15.15-18.75l23.4-23.4c8.4,6.8,15.3,15.65,20.7,26.55c5.4,10.9,8.1,23.25,8.1,37.05
				c0,12.8-2.3,24.4-6.9,34.8c-4.6,10.4-11.25,18.65-19.95,24.75c-8.7,6.1-19.25,9.15-31.65,9.15c-10.8,0-19.7-1.8-26.7-5.4
				c-7-3.6-12.7-8.35-17.1-14.25c-4.4-5.9-8.05-12.4-10.95-19.5c-2.9-7.1-5.5-14.2-7.8-21.3c-2.3-7.1-4.9-13.6-7.8-19.5
				c-2.9-5.9-6.55-10.65-10.95-14.25c-4.4-3.6-10.1-5.4-17.1-5.4c-8.4,0-15,3.45-19.8,10.35c-4.8,6.9-7.2,16.15-7.2,27.75
				c0,12.4,2.35,22.6,7.05,30.6c4.7,8,11.25,14.9,19.65,20.7l-23.4,23.4C23.8,613,15,602.6,9,591c-6-11.6-9-25.7-9-42.3
				C0,526.1,5.5,508.15,16.5,494.85z"/>
		</g>
	</g>
</g>
<g id="Layer_2">
	<g>
		<path class="st3" d="M333.72,705.01c-25.37,0-46.91-4.58-64.63-13.75c-17.73-9.17-33.62-22.61-47.67-40.34l35.75-35.75
			c8.86,12.83,19.4,22.85,31.63,30.02c12.22,7.18,27.8,10.77,46.75,10.77c17.72,0,31.86-3.67,42.4-11s15.81-17.42,15.81-30.25
			c0-10.69-2.75-19.4-8.25-26.13c-5.5-6.72-12.76-12.3-21.77-16.73c-9.02-4.43-18.95-8.4-29.79-11.92
			c-10.85-3.51-21.7-7.48-32.54-11.92c-10.85-4.43-20.78-10.01-29.79-16.73c-9.02-6.72-16.27-15.43-21.77-26.13
			c-5.5-10.69-8.25-24.29-8.25-40.8c0-18.94,4.66-35.07,13.98-48.36c9.32-13.29,21.92-23.45,37.82-30.48
			c15.89-7.03,33.61-10.54,53.17-10.54c21.08,0,39.95,4.13,56.61,12.38c16.65,8.25,30.17,18.79,40.57,31.63l-35.75,35.75
			c-9.17-10.38-18.72-18.11-28.65-23.15c-9.93-5.04-21.31-7.56-34.15-7.56c-15.89,0-28.35,3.21-37.36,9.63
			c-9.02,6.42-13.52,15.43-13.52,27.04c0,9.78,2.75,17.65,8.25,23.61c5.5,5.96,12.75,11,21.77,15.13
			c9.01,4.12,18.94,8.02,29.79,11.69c10.84,3.67,21.69,7.79,32.54,12.38c10.84,4.58,20.78,10.47,29.79,17.65
			c9.01,7.18,16.27,16.43,21.77,27.73c5.5,11.31,8.25,25.52,8.25,42.63c0,28.73-10.16,51.49-30.48,68.3
			C395.67,696.61,368.25,705.01,333.72,705.01z"/>
		<path class="st3" d="M591.79,705.01c-22,0-41.79-4.96-59.36-14.9c-17.58-9.93-31.48-23.61-41.71-41.02
			c-10.24-17.42-15.36-36.97-15.36-58.67c0-21.69,5.04-41.17,15.13-58.44c10.08-17.26,23.76-30.94,41.02-41.02
			c17.26-10.08,36.44-15.13,57.53-15.13c20.47,0,38.57,4.74,54.32,14.21c15.73,9.48,28.11,22.46,37.13,38.96
			c9.01,16.5,13.52,35.29,13.52,56.38c0,3.67-0.23,7.41-0.69,11.23c-0.46,3.83-1.15,8.02-2.06,12.61h-180.6v-41.25h154.47
			l-18.79,16.5c-0.62-13.44-3.21-24.75-7.79-33.92c-4.58-9.17-11.08-16.19-19.48-21.08c-8.41-4.88-18.72-7.33-30.94-7.33
			c-12.83,0-23.99,2.75-33.46,8.25c-9.48,5.5-16.81,13.22-22,23.15c-5.2,9.93-7.79,21.77-7.79,35.52s2.75,25.83,8.25,36.21
			c5.5,10.39,13.29,18.41,23.38,24.06c10.09,5.66,21.7,8.48,34.84,8.48c11.3,0,21.77-1.98,31.4-5.96
			c9.63-3.97,17.8-9.78,24.52-17.42l32.09,32.55c-10.7,12.53-23.69,22-38.96,28.42C625.09,701.8,608.9,705.01,591.79,705.01z"/>
		<path class="st3" d="M715.09,526.25v-45.84h155.85v45.84H715.09z M767.8,700.43V388.74h50.42v311.69H767.8z"/>
		<path class="st3" d="M888.34,526.25v-45.84h155.85v45.84H888.34z M941.06,700.43V388.74h50.42v311.69H941.06z"/>
		<path class="st3" d="M1116.03,449.24c-8.56,0-15.66-2.9-21.31-8.71c-5.66-5.8-8.48-12.98-8.48-21.54c0-8.55,2.82-15.73,8.48-21.54
			c5.65-5.8,12.75-8.71,21.31-8.71c8.86,0,16.04,2.91,21.54,8.71c5.5,5.81,8.25,12.99,8.25,21.54c0,8.56-2.75,15.74-8.25,21.54
			C1132.07,446.34,1124.89,449.24,1116.03,449.24z M1090.82,700.43V480.41h50.42v220.02H1090.82z"/>
		<path class="st3" d="M1188.11,700.43V480.41h50.42v220.02H1188.11z M1334.33,700.43V569.34c0-14.67-4.58-26.05-13.75-34.15
			c-9.17-8.09-20.48-12.15-33.92-12.15c-9.17,0-17.35,1.83-24.52,5.5c-7.18,3.67-12.91,8.94-17.19,15.81
			c-4.28,6.88-6.42,15.21-6.42,24.98l-19.71-11c0-16.8,3.67-31.32,11-43.55c7.34-12.22,17.26-21.77,29.79-28.65
			c12.53-6.88,26.59-10.31,42.17-10.31c15.58,0,29.64,3.37,42.17,10.08c12.53,6.72,22.46,16.2,29.79,28.42
			c7.33,12.23,11,26.89,11,44v142.09H1334.33z M1480.55,700.43V569.34c0-14.67-4.58-26.05-13.75-34.15
			c-9.17-8.09-20.48-12.15-33.92-12.15c-8.87,0-16.96,1.83-24.29,5.5c-7.33,3.67-13.14,8.94-17.42,15.81
			c-4.28,6.88-6.42,15.21-6.42,24.98l-28.42-11c1.52-16.8,6.42-31.32,14.67-43.55c8.25-12.22,18.86-21.77,31.86-28.65
			c12.99-6.88,27.27-10.31,42.86-10.31c15.88,0,30.25,3.37,43.09,10.08c12.83,6.72,23.07,16.2,30.71,28.42
			c7.64,12.23,11.46,26.89,11.46,44v142.09H1480.55z"/>
		<path class="st3" d="M1674.9,705.01c-19.87,0-37.82-5.04-53.86-15.13c-16.04-10.09-28.73-23.76-38.04-41.03
			c-9.33-17.26-13.98-36.59-13.98-57.98c0-21.69,4.66-41.17,13.98-58.44c9.32-17.26,22-31.01,38.04-41.25
			c16.04-10.23,33.99-15.36,53.86-15.36c16.8,0,31.7,3.6,44.69,10.77c12.99,7.18,23.3,17.04,30.94,29.57
			c7.64,12.53,11.46,26.74,11.46,42.63v63.25c0,15.89-3.75,30.1-11.23,42.63c-7.49,12.53-17.81,22.39-30.94,29.56
			C1706.68,701.42,1691.7,705.01,1674.9,705.01z M1683.15,657.34c18.64,0,33.69-6.26,45.15-18.79
			c11.46-12.53,17.19-28.57,17.19-48.13c0-13.13-2.6-24.75-7.79-34.84c-5.2-10.08-12.45-17.95-21.77-23.61
			c-9.33-5.65-20.25-8.48-32.77-8.48c-12.23,0-23,2.83-32.32,8.48c-9.32,5.66-16.66,13.52-22,23.61
			c-5.35,10.08-8.02,21.7-8.02,34.84c0,13.14,2.67,24.75,8.02,34.84c5.34,10.09,12.68,17.96,22,23.61
			C1660.15,654.52,1670.92,657.34,1683.15,657.34z M1742.28,700.43V641.3l8.71-53.63l-8.71-53.17v-54.09h50.42v220.02H1742.28z"/>
		<path class="st3" d="M1887.12,705.01c-9.78,0-17.81-3.29-24.06-9.86c-6.27-6.57-9.4-14.59-9.4-24.06c0-9.78,3.13-17.88,9.4-24.29
			c6.26-6.42,14.28-9.63,24.06-9.63c9.78,0,17.8,3.21,24.06,9.63c6.26,6.42,9.4,14.52,9.4,24.29c0,9.48-3.14,17.5-9.4,24.06
			C1904.92,701.73,1896.89,705.01,1887.12,705.01z"/>
	</g>
</g>
</svg>
